<?xml version="1.0" encoding="utf-8"?>
<!-- Generator: Adobe Illustrator 23.0.1, SVG Export Plug-In . SVG Version: 6.00 Build 0)  -->
<svg version="1.1" id="Layer_1" xmlns="http://www.w3.org/2000/svg" xmlns:xlink="http://www.w3.org/1999/xlink" x="0px" y="0px"
	 viewBox="0 0 1920 113" style="enable-background:new 0 0 1920 113;" xml:space="preserve">
<style type="text/css">
	.st0{opacity:0.2;fill:#FFFFFF;enable-background:new    ;}
	.st1{opacity:0.3;fill:#FFFFFF;enable-background:new    ;}
	.st2{fill:#FFFFFF;}
</style>
<g>
	<path class="st0" d="M217.3,33.1c-3.9,0-7.8,0-11.7,0C92.4,33.7,13.7,48.6-0.1,51.3V4.9C-0.1,4.9,119.4,1.2,217.3,33.1z"/>
	<path class="st0" d="M1030.6,85.1C1014.3,86.6,999,88,985,89l0,0c-0.8,0-1.6,0.1-2.4,0.1c-0.2,0-0.4,0-0.7,0
		c-0.6,0-1.1,0.1-1.7,0.1c-0.3,0-0.6,0-0.9,0c-0.5,0-1,0-1.5,0.1c-0.3,0-0.7,0-1,0c-0.4,0-0.9,0-1.3,0.1c-0.4,0-0.9,0-1.3,0.1
		c-0.3,0-0.5,0-0.8,0c-0.6,0-1.2,0.1-1.8,0.1c0,0-0.1,0-0.2,0c-34.6,2.5-57.7,3.6-57.7,3.6v0.1c-2.8,0-5.6,0.1-8.4,0.1
		c-4.4,0-8.9,0.1-13.4,0.1c-2.2,0-4.3,0-6.5,0c-1.8,0-3.7,0-5.5,0c-3.7,0-7.5,0-11.2,0h-1c-2.2,0-4.5,0-6.8,0l0,0l0,0h-0.1l0,0
		c0,0,0,0-0.1,0H860c-0.1,0-0.2,0-0.3,0c-1.6,0-3.2,0-4.8,0c-2.7,0-5.4,0-8.1-0.1c-1.1,0-2.3,0-3.4,0c-7.1-0.1-14.2-0.3-21.4-0.4
		c-3.9-0.1-7.7-0.1-11.6-0.3c-3.2-0.1-6.4-0.1-9.6-0.3c-1.1,0-2.3,0-3.4-0.1c-3.4-0.1-6.8-0.1-10.3-0.3c-4.3-0.1-8.6-0.3-12.9-0.4
		c-6.7-0.3-13.4-0.6-20.1-0.9c-2.2-0.1-4.5-0.3-6.7-0.3c-2.5-0.1-4.9-0.3-7.4-0.4c-3.5-0.1-7-0.4-10.6-0.6c-0.7,0-1.5-0.1-2.2-0.1
		c-3.6-0.1-7.2-0.4-10.8-0.7c-4-0.3-7.9-0.6-11.9-0.7c-3.6-0.3-7.2-0.4-10.8-0.7c-0.3,0-0.7,0-1,0l0,0c-0.6,0-1.2-0.1-1.8-0.1
		c-1.9-0.1-3.8-0.3-5.7-0.4c-2.5-0.1-5-0.4-7.6-0.6c-2.5-0.1-5-0.4-7.6-0.6c-2.5-0.1-5-0.4-7.6-0.6c-5.4-0.4-10.7-0.9-16.1-1.5
		c-9.7-0.9-19.4-1.9-29.1-3c-17.1-1.8-34.1-3.9-50.9-6.1c-0.4,0-0.8-0.1-1.2-0.1c-2.5-0.3-4.9-0.6-7.4-1c-2.5-0.3-4.9-0.6-7.4-1
		c-1.9-0.3-3.9-0.6-5.8-0.7c-7.8-1.2-15.6-2.2-23.4-3.4c-1.9-0.3-3.7-0.6-5.5-0.9c-3-0.4-5.9-0.9-8.9-1.5c-2.4-0.4-4.8-0.7-7.2-1.2
		c-5.2-0.9-10.3-1.8-15.4-2.7c-2-0.3-3.9-0.7-5.9-1c-1.8-0.3-3.5-0.6-5.3-1c-5.3-1-10.5-1.9-15.7-3
		c-85.2-16.8-165.2-22.7-233.8-23.3c-1.9,0-3.7,0-5.6,0h-1c0,0,92.2-32,222.5-33.1c4.3,0,8.7,0,13.1,0C513,0.4,580.9,7.9,651.3,28.1
		c64,18.3,124.6,30.7,179.1,39.2C917,80.9,988.1,84.5,1030.6,85.1z"/>
	<path class="st0" d="M1407.9,22.3c-84.6,6.9-153.1,24.5-208.4,39.4c-106,23.5-285.6,32.2-285.6,32.2V94c-2.8,0-5.6,0.1-8.4,0.1
		c-4.4,0-8.9,0.1-13.4,0.1c-2.2,0-4.3,0-6.5,0c-1.8,0-3.7,0-5.5,0c-3.7,0-7.5,0-11.2,0c-2.6,0-5.2,0-7.7,0c0,0,0,0-0.1,0H861
		c0,0,0,0-0.1,0c-1.6,0-3.2,0-4.8,0c-2.7,0-5.4,0-8.1-0.1c-1.1,0-2.3,0-3.4,0c-7.1-0.1-14.2-0.3-21.4-0.4c-3.9-0.1-7.7-0.1-11.6-0.3
		c-3.2,0-6.4-0.1-9.6-0.3c-1.1,0-2.3,0-3.4-0.1c-3.4-0.1-6.8-0.1-10.3-0.3c-4.3-0.1-8.6-0.3-12.9-0.4c-6.7-0.3-13.4-0.6-20.1-0.9
		c-2.2-0.1-4.5-0.3-6.7-0.3c-2.5-0.1-4.9-0.3-7.4-0.4c-3.5-0.1-7.1-0.4-10.6-0.6c-0.7,0-1.5-0.1-2.2-0.1c-3.6-0.1-7.2-0.4-10.8-0.7
		c-4-0.3-7.9-0.6-11.9-0.7c-3.6-0.3-7.2-0.4-10.8-0.7c-0.3,0-0.7,0-1,0l0,0c-0.2,0-0.4,0-0.6,0c5.3-0.6,63.6-7.6,137.2-19.8
		c53.1-8.7,114.1-20.2,168.9-33.8C1114.5,4.9,1298.6,3.4,1407.9,22.3z"/>
	<path class="st1" d="M856,94c1.6,0,3.2,0,4.8,0H860c-0.1,0-0.2,0-0.3,0c-1.6,0-3.2,0-4.8,0c-2.7,0-5.4,0-8.1-0.1
		c-1.1,0-2.3,0-3.4,0c-7.1-0.1-14.2-0.3-21.4-0.4c-3.9-0.1-7.7-0.1-11.6-0.3c-3.2-0.1-6.4-0.1-9.6-0.3c-1.1,0-2.3,0-3.4-0.1
		c-3.4-0.1-6.8-0.1-10.3-0.3c-4.3-0.1-8.6-0.3-12.9-0.4c-6.7-0.3-13.4-0.6-20.1-0.9c-2.2-0.1-4.5-0.3-6.7-0.3
		c-2.5-0.1-4.9-0.3-7.4-0.4c-3.5-0.1-7-0.4-10.6-0.6c-0.7,0-1.5-0.1-2.2-0.1c-3.6-0.1-7.2-0.4-10.8-0.7c-4-0.3-7.9-0.6-11.9-0.7
		c-3.6-0.3-7.2-0.4-10.8-0.7c-0.3,0-0.7,0-1,0c0,0,0.2,0,0.4,0s0.4,0,0.6,0l0,0c0.3,0,0.7,0,1,0c3.6,0.3,7.2,0.6,10.8,0.7
		c4,0.3,7.9,0.6,11.9,0.7c3.6,0.3,7.2,0.4,10.8,0.7c0.8,0,1.5,0.1,2.2,0.1c3.5,0.1,7.1,0.4,10.6,0.6c2.5,0.1,4.9,0.3,7.4,0.4
		c2.2,0.1,4.5,0.3,6.7,0.3c6.7,0.3,13.4,0.6,20.1,0.9c4.3,0.1,8.6,0.3,12.9,0.4c3.4,0.1,6.9,0.3,10.3,0.3c1.1,0,2.3,0.1,3.4,0.1
		c3.2,0.1,6.4,0.1,9.6,0.3c3.9,0.1,7.7,0.1,11.6,0.3c7.2,0.1,14.3,0.3,21.4,0.4c1.1,0,2.3,0,3.4,0C850.5,94,853.3,94,856,94z"/>
	<path class="st1" d="M861,94.1c2.6,0,5.2,0,7.7,0h-1C865.5,94.1,863.3,94.1,861,94.1L861,94.1z"/>
	<path class="st0" d="M1920,40.5v72.3c-180-72.9-326.6-94.7-445.7-93.7C1477,18.9,1745.5-18.9,1920,40.5z"/>
	<path class="st1" d="M856,94c1.6,0,3.2,0,4.8,0H860c-0.1,0-0.2,0-0.3,0c-1.6,0-3.2,0-4.8,0c-2.7,0-5.4,0-8.1-0.1
		c-1.1,0-2.3,0-3.4,0c-7.1-0.1-14.2-0.3-21.4-0.4c-3.9-0.1-7.7-0.1-11.6-0.3c-3.2-0.1-6.4-0.1-9.6-0.3c-1.1,0-2.3,0-3.4-0.1
		c-3.4-0.1-6.8-0.1-10.3-0.3c-4.3-0.1-8.6-0.3-12.9-0.4c-6.7-0.3-13.4-0.6-20.1-0.9c-2.2-0.1-4.5-0.3-6.7-0.3
		c-2.5-0.1-4.9-0.3-7.4-0.4c-3.5-0.1-7-0.4-10.6-0.6c-0.7,0-1.5-0.1-2.2-0.1c-3.6-0.1-7.2-0.4-10.8-0.7c-4-0.3-7.9-0.6-11.9-0.7
		c-3.6-0.3-7.2-0.4-10.8-0.7c-0.3,0-0.7,0-1,0l0,0c-0.6,0-1.2-0.1-1.8-0.1c-1.9-0.1-3.8-0.3-5.7-0.4c-2.5-0.1-5-0.4-7.6-0.6
		c-2.5-0.1-5-0.4-7.6-0.6c-2.5-0.1-5-0.4-7.6-0.6c-5.4-0.4-10.7-0.9-16.1-1.5c-9.7-0.9-19.4-1.9-29.1-3c-17.1-1.8-34.1-3.9-50.9-6.1
		c-0.4,0-0.8-0.1-1.2-0.1c-2.5-0.3-4.9-0.6-7.4-1c-2.5-0.3-4.9-0.6-7.4-1c-1.9-0.3-3.9-0.6-5.8-0.7c-7.8-1.2-15.6-2.2-23.4-3.4
		c-1.9-0.3-3.7-0.6-5.5-0.9c-3-0.4-5.9-0.9-8.9-1.5c-2.4-0.4-4.8-0.7-7.2-1.2c-5.2-0.9-10.3-1.8-15.4-2.7c-2-0.3-3.9-0.7-5.9-1
		c-1.8-0.3-3.5-0.6-5.3-1c-5.3-1-10.5-1.9-15.7-3c-85.2-16.8-165.2-22.7-233.8-23.3c68.8,0.6,149.2,6.4,234.8,23.3
		c5.2,1,10.4,2.1,15.7,3c1.8,0.3,3.5,0.6,5.3,1c2,0.3,3.9,0.7,5.9,1c5.1,0.9,10.2,1.8,15.4,2.7c2.4,0.4,4.8,0.7,7.2,1.2
		c3,0.4,5.9,0.9,8.9,1.5c1.8,0.3,3.7,0.6,5.5,0.9c7.7,1.2,15.5,2.4,23.4,3.4c1.9,0.3,3.9,0.6,5.8,0.7c2.5,0.3,4.9,0.7,7.4,1
		s4.9,0.6,7.4,1c0.4,0,0.8,0.1,1.2,0.1c16.8,2.2,33.8,4.2,50.9,6.1c9.7,1,19.4,2.1,29.1,3c5.4,0.4,10.7,1,16.1,1.5
		c2.5,0.1,5,0.4,7.6,0.6c2.5,0.1,5,0.4,7.6,0.6c2.5,0.1,5,0.4,7.6,0.6c1.9,0.1,3.8,0.3,5.7,0.4c0.4,0,0.8,0,1.2,0.1
		c0.2,0,0.4,0,0.6,0l0,0c0.3,0,0.7,0,1,0c3.6,0.3,7.2,0.6,10.8,0.7c4,0.3,7.9,0.6,11.9,0.7c3.6,0.3,7.2,0.4,10.8,0.7
		c0.8,0,1.5,0.1,2.2,0.1c3.5,0.1,7.1,0.4,10.6,0.6c2.5,0.1,4.9,0.3,7.4,0.4c2.2,0.1,4.5,0.3,6.7,0.3c6.7,0.3,13.4,0.6,20.1,0.9
		c4.3,0.1,8.6,0.3,12.9,0.4c3.4,0.1,6.9,0.3,10.3,0.3c1.1,0,2.3,0.1,3.4,0.1c3.2,0.1,6.4,0.1,9.6,0.3c3.9,0.1,7.7,0.1,11.6,0.3
		c7.2,0.1,14.3,0.3,21.4,0.4c1.1,0,2.3,0,3.4,0C850.5,94,853.3,94,856,94z"/>
	<path class="st1" d="M861,94.1c2.6,0,5.2,0,7.7,0h-1C865.5,94.1,863.3,94.1,861,94.1L861,94.1z"/>
	<path class="st2" d="M1920.1,112.7v0.3H0.1v-61c1.7-0.4-0.4-0.3,0.1-0.4c13.7-2.8,92.4-17.8,205.7-18.3c3.5,0,7.1,0,10.6,0h1
		c1.9,0,3.7,0,5.6,0c68.6,0.6,148.6,6.6,233.9,23.3c5.2,1,10.4,2.1,15.7,3c1.8,0.3,3.5,0.6,5.3,1c2,0.3,3.9,0.7,5.9,1
		c5.1,0.9,10.2,1.8,15.4,2.7c2.4,0.4,4.8,0.7,7.2,1.2c3,0.4,5.9,1,8.9,1.5c1.8,0.3,3.7,0.6,5.5,0.9c7.7,1.2,15.5,2.4,23.4,3.4
		c1.9,0.3,3.9,0.6,5.8,0.7c2.4,0.3,4.9,0.7,7.3,1c2.5,0.3,4.9,0.6,7.4,1c0.4,0,0.8,0.1,1.2,0.1c16.8,2.2,33.8,4.2,50.9,6.1
		c9.7,1,19.4,1.9,29.1,3c5.4,0.4,10.7,1,16.1,1.5c2.5,0.3,5,0.4,7.5,0.6c2.5,0.1,5,0.4,7.6,0.6c2.5,0.1,5,0.4,7.5,0.6
		c1.9,0.1,3.8,0.3,5.7,0.4c0.6,0,1.2,0.1,1.8,0.1l0,0c0.4,0,0.7,0,1,0c3.6,0.3,7.2,0.6,10.8,0.7c4,0.3,7.9,0.6,11.8,0.7
		c3.6,0.3,7.2,0.4,10.9,0.7c0.8,0,1.5,0.1,2.2,0.1c3.5,0.1,7,0.4,10.6,0.6c2.4,0.1,4.9,0.3,7.4,0.4c2.2,0.1,4.5,0.3,6.7,0.3
		c6.7,0.3,13.4,0.6,20.1,0.9c4.3,0.1,8.6,0.3,12.9,0.4c3.4,0.1,6.9,0.3,10.3,0.3c1.1,0,2.3,0,3.4,0.1c3.2,0.1,6.4,0.1,9.6,0.3
		c3.9,0.1,7.7,0.1,11.6,0.3c7.2,0.1,14.3,0.3,21.4,0.4c1.1,0,2.3,0,3.4,0c2.7,0,5.4,0,8.1,0.1c1.6,0,3.2,0,4.8,0c0.1,0,0.2,0,0.3,0
		h0.7c0,0,0,0,0.1,0l0,0h0.1l0,0l0,0c2.3,0,4.5,0,6.8,0h1c3.8,0,7.5,0,11.2,0c1.8,0,3.7,0,5.5,0c2.2,0,4.3,0,6.5,0
		c4.5,0,8.9,0,13.4-0.1c2.8,0,5.6,0,8.4-0.1v-0.1c0,0,23.2-1.2,57.7-3.6h0.1c0.6,0,1.2-0.1,1.8-0.1c0.3,0,0.5,0,0.8,0
		c0.4,0,0.9,0,1.3-0.1c0.4,0,0.9,0,1.3-0.1c0.3,0,0.6,0,1,0c0.5,0,1,0,1.5-0.1c0.3,0,0.6,0,0.9,0c0.6,0,1.1-0.1,1.7-0.1
		c0.2,0,0.5,0,0.7,0c0.8,0,1.6-0.1,2.4-0.1l0,0c14-1,29.3-2.4,45.5-3.9c10.7-1,21.8-2.1,33-3.3c0.6,0,91.5-11.8,166.5-28.1
		c12.8-3.3,26.2-6.6,40.2-9.7l0,0c40.6-9.1,86.6-17.5,138.7-21.8c21.1-1.8,43.3-2.8,66.4-3l0,0c119-1,265.3,20.6,444.9,93.2
		C1920,112.5,1920.1,112.5,1920.1,112.7z"/>
</g>
</svg>
