<?xml version="1.0" encoding="utf-8"?>
<!-- Svg Vector Icons : http://www.onlinewebfonts.com/icon -->
<!DOCTYPE svg PUBLIC "-//W3C//DTD SVG 1.1//EN" "http://www.w3.org/Graphics/SVG/1.1/DTD/svg11.dtd">
<svg version="1.1" xmlns="http://www.w3.org/2000/svg" xmlns:xlink="http://www.w3.org/1999/xlink" x="0px" y="0px" viewBox="0 0 1000 1000" enable-background="new 0 0 1000 1000" xml:space="preserve">
<metadata> Svg Vector Icons : http://www.onlinewebfonts.com/icon </metadata>
<g><g transform="translate(0.000000,512.000000) scale(0.100000,-0.100000)"><path d="M8726.5,5009c-12.1-8.1-225.3-253.4-476.7-543.1c-350-408.3-464.6-555.1-494.8-633.6c-24.1-66.4-46.3-209.2-60.3-396.2l-24.1-291.6l-386.2-392.2c-213.2-215.2-919.2-929.2-1572.8-1584.9L4524.9-23.3v-100.6c0-86.5,10.1-108.6,66.4-165c56.3-56.3,78.4-66.3,164.9-66.3h100.6l1572.8,1572.8l1574.8,1572.8l301.7,22.1c219.2,18.1,331.9,36.2,410.3,66.4c82.5,34.2,237.3,154.9,637.6,496.8c289.6,249.4,535,468.6,541,490.8c8,20.1,6,44.3-4,54.3c-10.1,10.1-199.1,32.2-420.4,48.3c-239.4,20.1-426.4,44.3-466.6,60.3c-98.6,44.3-120.7,118.7-152.9,545.1c-16.1,209.2-36.2,398.2-44.2,416.3C8792.8,5027.1,8762.7,5035.1,8726.5,5009z"/><path d="M4384.1,4530.3c-941.3-98.5-1693.5-384.2-2415.6-917.2c-281.6-207.2-742.2-667.7-949.3-949.3c-472.7-641.6-760.3-1329.5-883-2123.9C87.9,218,87.9-467.8,136.2-787.6c211.2-1343.6,927.2-2471.9,2055.6-3232.2c1331.5-897,3155.7-1015.7,4601.9-297.6c504.8,251.4,852.8,500.8,1253,903.1c621.5,623.5,1017.7,1315.4,1226.9,2136c315.8,1251,118.7,2520.2-563.2,3624.4l-102.6,166.9l-181-12.1c-259.5-18.1-275.5-22.1-370.1-118.7l-84.5-86.5l134.7-199.1c864.9-1289.2,891-3019,64.4-4340.4c-239.3-382.1-633.6-816.6-971.5-1072c-826.6-623.5-1830.3-911.1-2827.9-810.5C2157.5-3903.1,536.5-1936.1,753.7,260.3c138.8,1397.9,981.5,2610.7,2242.6,3228.1c1281.2,625.5,2805.8,525,3980.4-261.5l199.1-134.8l86.5,84.5c96.6,94.5,100.6,110.6,118.7,370.1l12.1,181L7226,3830.3c-571.2,352-1128.3,559.1-1786,661.7C5236.9,4522.2,4555,4548.4,4384.1,4530.3z"/><path d="M4384.1,2750.3c-637.6-86.5-1208.8-370.1-1669.4-832.7C1695,899.9,1574.3-689.1,2429.1-1845.6c132.8-179,426.4-474.7,607.4-607.4c872.9-645.6,2053.6-744.2,3021-253.4C7332.6-2058.8,7948.1-586.5,7509.6,767.1c-58.3,181-247.4,583.3-315.8,673.8l-34.2,44.3l-229.3-229.3l-231.3-231.3l84.5-177c86.5-187,146.8-360,189.1-559.1c32.2-154.9,32.2-667.8,0-824.6c-207.2-973.5-957.4-1681.5-1924.8-1820.2C4374-2451,3664-2207.6,3167.2-1712.8C2654.3-1197.9,2419-479.9,2533.7,228.1c239.3,1480.3,1818.2,2317,3173.8,1683.5l197.1-92.5l231.3,231.3l229.3,229.3l-44.2,34.2c-86.5,68.4-488.7,257.4-673.8,315.8c-100.6,34.2-259.4,74.4-352,92.5C5096.1,2762.3,4581.2,2778.4,4384.1,2750.3z"/><path d="M4500.7,974.3c-295.6-68.4-593.3-297.7-736.1-569.2c-506.9-965.4,504.8-2009.3,1486.4-1534.6C5665.3-930.4,5914.7-490,5874.4-27.4c-6,80.4-18.1,156.9-24.1,169c-6,10.1-191.1-156.9-408.3-372.1c-362-360-402.3-394.2-502.8-424.4c-229.3-68.4-416.3-22.1-577.2,136.8C4203-357.2,4156.8-170.1,4225.2,59.2c30.2,100.6,64.3,140.8,424.4,502.8c237.3,241.4,382.1,400.2,368.1,410.3C4971.4,1000.4,4625.4,1002.5,4500.7,974.3z"/></g></g>
</svg>