<?xml version="1.0" encoding="iso-8859-1"?>
<!-- Generator: Adobe Illustrator 18.1.1, SVG Export Plug-In . SVG Version: 6.00 Build 0)  -->
<svg version="1.1" id="Capa_1" xmlns="http://www.w3.org/2000/svg" xmlns:xlink="http://www.w3.org/1999/xlink" x="0px" y="0px"
	 viewBox="0 0 53.777 53.777" style="enable-background:new 0 0 53.777 53.777;" xml:space="preserve">
<g>
	<path style="fill:#010002;" d="M35.368,40.472c7.439-3.274,12.652-10.706,12.652-19.341C48.02,9.48,38.54,0,26.889,0
		S5.757,9.479,5.757,21.131c0,8.781,5.387,16.324,13.027,19.509l-6.664,10.851c-0.434,0.706-0.213,1.629,0.493,2.063
		c0.245,0.151,0.515,0.222,0.784,0.222c0.504,0,0.996-0.254,1.28-0.715l7.042-11.465c1.658,0.419,3.383,0.666,5.169,0.666
		c1.937,0,3.806-0.284,5.589-0.774c0.011,0.019,0.017,0.04,0.029,0.06l7.072,11.514c0.283,0.461,0.775,0.715,1.279,0.715
		c0.268,0,0.539-0.072,0.785-0.222c0.706-0.433,0.927-1.357,0.493-2.063L35.368,40.472z M8.758,21.131
		C8.758,11.134,16.892,3,26.889,3S45.02,11.134,45.02,21.131s-8.134,18.131-18.131,18.131S8.758,31.128,8.758,21.131z M26.889,7.225
		c-7.669,0-13.907,6.238-13.907,13.906c0,7.669,6.238,13.907,13.907,13.907c7.668,0,13.906-6.238,13.906-13.907
		C40.795,13.463,34.556,7.225,26.889,7.225z M26.889,32.038c-6.015,0-10.907-4.893-10.907-10.907s4.892-10.906,10.907-10.906
		c6.014,0,10.906,4.893,10.906,10.906C37.795,27.146,32.903,32.038,26.889,32.038z M26.889,14.738c-3.526,0-6.395,2.868-6.395,6.394
		s2.868,6.394,6.395,6.394c3.526,0,6.394-2.868,6.394-6.394S30.415,14.738,26.889,14.738z M26.889,24.526
		c-1.872,0-3.395-1.522-3.395-3.394c0-1.871,1.522-3.394,3.395-3.394c1.872,0,3.394,1.522,3.394,3.394
		C30.283,23.003,28.761,24.526,26.889,24.526z"/>
</g>
<g>
</g>
<g>
</g>
<g>
</g>
<g>
</g>
<g>
</g>
<g>
</g>
<g>
</g>
<g>
</g>
<g>
</g>
<g>
</g>
<g>
</g>
<g>
</g>
<g>
</g>
<g>
</g>
<g>
</g>
</svg>
