<?xml version="1.0" encoding="utf-8"?>
<!-- Generator: Adobe Illustrator 23.0.1, SVG Export Plug-In . SVG Version: 6.00 Build 0)  -->
<svg version="1.1" id="Layer_1" xmlns="http://www.w3.org/2000/svg" xmlns:xlink="http://www.w3.org/1999/xlink" x="0px" y="0px"
	 viewBox="0 0 317.3 298" style="enable-background:new 0 0 317.3 298;" xml:space="preserve">
<style type="text/css">
	.st0{opacity:5.000000e-02;fill:#903AF9;}
	.st1{opacity:0.7;fill:#8B78FF;}
	.st2{opacity:0.5;fill:#8B78FF;}
	.st3{opacity:0.7;fill:#F5548E;}
	.st4{opacity:0.8;}
	.st5{fill:#8B78FF;}
	.st6{opacity:0.5;}
	.st7{fill:#F5548E;}
	.st8{fill:#FFFFFF;}
	.st9{opacity:8.000000e-02;}
	.st10{opacity:0.3;}
	.st11{fill:#903AF9;}
	.st12{opacity:0.2;}
	.st13{opacity:0.8;fill:#F5548E;}
	.st14{opacity:0.8;fill:#903AF9;}
	.st15{opacity:0.1;fill:#8B78FF;}
	.st16{fill:#32CC6F;}
</style>
<circle id="XMLID_28_" class="st0" cx="146.9" cy="171.6" r="125.1"/>
<circle id="XMLID_26_" class="st0" cx="146.9" cy="161.6" r="92.6"/>
<polygon id="XMLID_48_" class="st1" points="261.1,77.4 262.3,89.1 292.4,49.1 "/>
<polygon id="XMLID_47_" class="st2" points="262.3,89.1 273.9,87 292.4,49.1 "/>
<polygon id="XMLID_46_" class="st3" points="292.4,49.1 284.7,101.3 273.9,87 "/>
<polygon id="XMLID_44_" class="st3" points="292.4,49.1 261.1,77.4 244.4,71 "/>
<g id="XMLID_75_" class="st4">
	<path id="XMLID_120_" class="st5" d="M249.5,103.8c-0.3,0-0.5-0.2-0.5-0.5c0-0.4,0-0.7,0-1.1c0-0.3,0.2-0.5,0.5-0.5
		c0.1,0,0.3,0.1,0.4,0.2c0.1,0.1,0.1,0.2,0.1,0.3c0,0.4,0,0.7,0,1.1C250.1,103.6,249.8,103.8,249.5,103.8L249.5,103.8z"/>
	<path id="XMLID_119_" class="st5" d="M249.3,98.7c-0.2,0-0.4-0.2-0.5-0.4c-0.1-0.7-0.3-1.3-0.5-1.9c-0.1-0.3,0.1-0.5,0.3-0.6
		c0,0,0.1,0,0.2,0c0.2,0,0.4,0.1,0.5,0.3c0.2,0.7,0.4,1.3,0.5,2c0,0.1,0,0.3-0.1,0.4S249.5,98.7,249.3,98.7
		C249.3,98.7,249.3,98.7,249.3,98.7z"/>
	<path id="XMLID_118_" class="st5" d="M239.6,111.3c-0.7,0-1.4,0-2.1-0.1c-0.2,0-0.3-0.1-0.3-0.1c0-0.1-0.1-0.2-0.1-0.3
		c0-0.2,0.2-0.4,0.5-0.4c0,0,0.1,0,0.1,0c0.6,0.1,1.3,0.2,2,0.2c0.3,0,0.5,0.1,0.5,0.4C240.1,111.2,239.8,111.3,239.6,111.3
		L239.6,111.3z"/>
	<path id="XMLID_117_" class="st5" d="M229.2,105.9c-0.2,0-0.3-0.1-0.4-0.2c-0.4-0.6-0.7-1.3-0.9-1.9c-0.1-0.2,0-0.3,0-0.4
		c0-0.1,0.1-0.2,0.3-0.3c0,0,0.1,0,0.1,0c0.2,0,0.4,0.1,0.5,0.3c0.2,0.6,0.5,1.2,0.8,1.8c0.1,0.2,0.1,0.5-0.2,0.7
		C229.4,105.9,229.3,105.9,229.2,105.9L229.2,105.9z"/>
	<path id="XMLID_116_" class="st5" d="M253.9,104.5c-0.1,0-0.2,0-0.3-0.1c-0.2-0.2-0.2-0.5,0-0.7c0.5-0.5,0.9-1,1.3-1.5
		c0.1-0.1,0.2-0.2,0.4-0.2c0.1,0,0.2,0,0.3,0.1c0.1,0.1,0.2,0.2,0.2,0.3c0,0.1,0,0.3-0.1,0.4c-0.4,0.5-0.9,1.1-1.4,1.6
		C254.2,104.4,254,104.5,253.9,104.5L253.9,104.5z"/>
	<path id="XMLID_115_" class="st5" d="M233.6,110.1c-0.1,0-0.2,0-0.2-0.1c-0.6-0.3-1.2-0.7-1.8-1.2c-0.1-0.1-0.2-0.3-0.2-0.4
		c0-0.1,0-0.3,0.1-0.4c0.1-0.1,0.2-0.1,0.4-0.1c0.1,0,0.2,0,0.3,0.1c0.5,0.4,1.1,0.8,1.7,1.1c0.2,0.1,0.3,0.4,0.2,0.7
		C234,110,233.8,110.1,233.6,110.1L233.6,110.1z"/>
	<path id="XMLID_114_" class="st5" d="M243.6,111.1c-0.2,0-0.4-0.2-0.5-0.4c0,0,0-0.1,0-0.1c0-0.2,0.2-0.4,0.4-0.5
		c0.4-0.1,1-0.3,1.9-0.7c0.1,0,0.1,0,0.2,0c0.2,0,0.4,0.1,0.5,0.3c0.1,0.3,0,0.5-0.3,0.7c-0.7,0.3-1.4,0.5-2,0.7
		C243.7,111.1,243.7,111.1,243.6,111.1L243.6,111.1z"/>
	<path id="XMLID_113_" class="st5" d="M249.2,108.5c-0.2,0-0.3-0.1-0.4-0.2c-0.1-0.2-0.1-0.5,0.1-0.7c0.6-0.4,1.1-0.8,1.6-1.2
		c0.1-0.1,0.2-0.1,0.3-0.1c0.2,0,0.3,0.1,0.4,0.2c0.1,0.1,0.1,0.2,0.1,0.4c0,0.1-0.1,0.2-0.2,0.3c-0.6,0.4-1.1,0.8-1.7,1.2
		C249.4,108.4,249.3,108.5,249.2,108.5L249.2,108.5z"/>
	<path id="XMLID_112_" class="st5" d="M246.9,93c-0.2,0-0.3-0.1-0.4-0.2c-0.4-0.6-0.8-1.1-1.3-1.5c-0.2-0.2-0.2-0.5,0-0.7
		c0.1-0.1,0.2-0.2,0.4-0.2c0.1,0,0.3,0,0.3,0.1c0.5,0.5,1,1,1.4,1.6c0.1,0.1,0.1,0.2,0.1,0.4c0,0.1-0.1,0.2-0.2,0.3
		C247.1,93,247,93,246.9,93z"/>
	<path id="XMLID_111_" class="st5" d="M227.7,100.3c-0.3,0-0.5-0.4-0.5-0.7l0-0.2c0-0.7,0.1-1.4,0.3-2c0-0.2,0.3-0.4,0.5-0.4
		c0,0,0.1,0,0.1,0c0.3,0.1,0.4,0.3,0.4,0.6c-0.1,0.6-0.2,1.2-0.2,1.8l0,0.3C228.2,100,228,100.3,227.7,100.3L227.7,100.3z"/>
	<path id="XMLID_110_" class="st5" d="M242.1,89.4c0,0-0.1,0-0.1,0c-0.6-0.2-1.2-0.3-1.9-0.4c-0.2,0-0.3-0.1-0.3-0.2
		c-0.1-0.1-0.1-0.2-0.1-0.4c0-0.2,0.2-0.5,0.5-0.5c0.8,0.1,1.5,0.2,2.2,0.4c0.1,0,0.2,0.1,0.3,0.2c0.1,0.1,0.1,0.3,0,0.4
		C242.5,89.2,242.3,89.4,242.1,89.4z"/>
	<path id="XMLID_109_" class="st5" d="M234.1,90.2c-0.2,0-0.4-0.1-0.4-0.3c-0.1-0.2,0-0.5,0.2-0.7c0.6-0.3,1.3-0.6,2-0.8
		c0,0,0.1,0,0.1,0c0.2,0,0.4,0.1,0.5,0.4c0.1,0.3-0.1,0.5-0.3,0.6c-0.6,0.2-1.2,0.4-1.8,0.7C234.3,90.2,234.2,90.2,234.1,90.2
		L234.1,90.2z"/>
	<path id="XMLID_108_" class="st5" d="M257.5,99.5C257.5,99.5,257.5,99.5,257.5,99.5c-0.3-0.1-0.5-0.3-0.5-0.5c0-0.1,0-0.2,0.1-0.2
		c0.3-0.6,0.6-1.2,0.9-1.8c0.1-0.2,0.3-0.3,0.5-0.3c0.1,0,0.1,0,0.2,0c0.1,0.1,0.2,0.2,0.3,0.3c0,0.1,0,0.3,0,0.4
		c-0.3,0.6-0.6,1.3-1,1.9C257.9,99.4,257.7,99.5,257.5,99.5L257.5,99.5z"/>
	<path id="XMLID_107_" class="st5" d="M229.6,94.2c-0.1,0-0.2,0-0.3-0.1c-0.1-0.1-0.2-0.2-0.2-0.3c0-0.1,0-0.2,0.1-0.4
		c0.4-0.6,0.8-1.2,1.3-1.7c0.1-0.1,0.2-0.2,0.4-0.2c0.1,0,0.3,0,0.3,0.1c0.2,0.2,0.2,0.5,0,0.7c-0.4,0.5-0.9,1-1.2,1.5
		C229.9,94.1,229.7,94.2,229.6,94.2L229.6,94.2z"/>
	<path id="XMLID_106_" class="st5" d="M259.9,93.9c0,0-0.1,0-0.1,0c-0.2,0-0.3-0.2-0.3-0.2c0-0.1-0.1-0.2,0-0.4
		c0.1-0.3,0.2-0.7,0.3-1c0.1-0.2,0.3-0.4,0.5-0.4c0,0,0.1,0,0.1,0c0.3,0.1,0.4,0.3,0.4,0.6c-0.1,0.3-0.2,0.7-0.3,1
		C260.4,93.7,260.2,93.9,259.9,93.9L259.9,93.9z"/>
	<path id="XMLID_105_" class="st5" d="M216,123c-0.1,0-0.1,0-0.2,0c-0.3-0.2-0.6-0.3-1-0.5c-0.2-0.1-0.3-0.4-0.2-0.7
		c0.1-0.2,0.3-0.3,0.4-0.3c0.1,0,0.2,0,0.2,0.1c0.3,0.2,0.6,0.3,0.9,0.5c0.2,0.1,0.4,0.4,0.2,0.7C216.4,122.8,216.2,123,216,123
		L216,123z"/>
	<path id="XMLID_104_" class="st5" d="M221.6,124.8C221.6,124.8,221.6,124.8,221.6,124.8c-0.8-0.1-1.4-0.3-2.1-0.5
		c-0.2,0-0.3-0.2-0.3-0.2c0-0.1-0.1-0.2,0-0.4c0.1-0.2,0.3-0.4,0.5-0.4c0,0,0.1,0,0.1,0c0.6,0.2,1.3,0.3,1.9,0.5
		c0.3,0.1,0.4,0.3,0.4,0.6C222.1,124.6,221.9,124.8,221.6,124.8C221.6,124.8,221.6,124.8,221.6,124.8z"/>
	<path id="XMLID_103_" class="st5" d="M225.9,125.3c-0.4,0-0.6-0.1-0.7-0.2c-0.1-0.1-0.2-0.3-0.2-0.4c0-0.2,0.1-0.3,0.2-0.4
		c0.1-0.1,0.2-0.1,0.5-0.1l0.3,0.1c0.5,0,1,0,1.4,0c0,0,0,0,0,0c0.3,0,0.5,0.1,0.5,0.4c0,0.3-0.2,0.5-0.5,0.5c-0.5,0-1,0.1-1.5,0.1
		H225.9z"/>
	<path id="XMLID_102_" class="st5" d="M231.5,124.6c-0.2,0-0.4-0.2-0.5-0.4c0-0.2,0-0.3,0.1-0.4c0-0.1,0.1-0.2,0.3-0.2
		c0.6-0.1,1.3-0.3,1.9-0.5c0.1,0,0.1,0,0.2,0c0.2,0,0.4,0.1,0.5,0.3c0,0.1,0,0.3,0,0.4c-0.1,0.1-0.2,0.2-0.3,0.2
		c-0.6,0.2-1.3,0.4-1.9,0.5C231.5,124.6,231.5,124.6,231.5,124.6z"/>
	<path id="XMLID_101_" class="st5" d="M242,119.2c-0.1,0-0.2,0-0.4-0.2c-0.1-0.1-0.1-0.3-0.1-0.4c0-0.1,0-0.2,0.2-0.3
		c0.4-0.3,0.7-0.6,1-1c0.1-0.1,0.2-0.2,0.4-0.4c0.1-0.1,0.2-0.2,0.4-0.2c0.1,0,0.3,0,0.3,0.1c0.2,0.2,0.2,0.5,0,0.7
		c-0.1,0.1-0.3,0.3-0.4,0.4c-0.3,0.3-0.7,0.7-1.1,1C242.2,119.2,242,119.2,242,119.2L242,119.2z"/>
	<path id="XMLID_100_" class="st5" d="M237,122.6c-0.2,0-0.4-0.1-0.4-0.3c-0.1-0.2-0.1-0.3,0-0.4c0-0.1,0.1-0.2,0.2-0.3
		c0.6-0.3,1.1-0.6,1.7-1c0.1,0,0.2-0.1,0.3-0.1c0.2,0,0.3,0.1,0.4,0.2c0.1,0.2,0.1,0.5-0.2,0.7c-0.6,0.3-1.2,0.7-1.8,1
		C237.2,122.5,237.1,122.6,237,122.6L237,122.6z"/>
	<path id="XMLID_99_" class="st5" d="M245.9,114.8c-0.1,0-0.2,0-0.3-0.1c-0.2-0.1-0.3-0.5-0.1-0.7c0.2-0.3,0.4-0.6,0.6-0.9
		c0.1-0.2,0.3-0.2,0.4-0.2c0.1,0,0.2,0,0.3,0.1c0.2,0.1,0.3,0.4,0.2,0.7c-0.2,0.3-0.4,0.6-0.6,0.9
		C246.2,114.7,246,114.8,245.9,114.8L245.9,114.8z"/>
</g>
<g id="XMLID_77_" class="st6">
	<path id="XMLID_78_" class="st7" d="M248.7,30.7c0,5-4.1,9.1-9.1,9.1c4.8,0,8.7,3.7,9.1,8.4h0.1c0.4-4.7,4.3-8.4,9.1-8.4
		C252.8,39.9,248.7,35.8,248.7,30.7z"/>
</g>
<g id="XMLID_83_">
	<path id="XMLID_84_" class="st7" d="M303.2,83.4c0,3-2.4,5.5-5.5,5.5c2.9,0,5.2,2.2,5.4,5h0c0.2-2.8,2.6-5,5.5-5
		C305.7,88.9,303.2,86.4,303.2,83.4z"/>
</g>
<g id="XMLID_79_" class="st6">
	<path id="XMLID_80_" class="st5" d="M308.7,41.3c0,4-3.3,7.3-7.3,7.3c3.8,0,7,3,7.3,6.7h0c0.3-3.8,3.4-6.7,7.3-6.7
		C312,48.6,308.7,45.3,308.7,41.3z"/>
</g>
<g id="XMLID_81_">
	<path id="XMLID_82_" class="st5" d="M283.2,26.1c0,2.1-1.7,3.8-3.8,3.8c2,0,3.6,1.5,3.8,3.5h0c0.2-2,1.8-3.5,3.8-3.5
		C284.9,30,283.2,28.3,283.2,26.1z"/>
</g>
<path id="XMLID_23_" class="st8" d="M207.2,261.2H85.9c-4.8,0-8.8-3.9-8.8-8.8V10.7c0-4.8,3.9-8.8,8.8-8.8h121.2
	c4.8,0,8.8,3.9,8.8,8.8v241.7C215.9,257.3,212,261.2,207.2,261.2z"/>
<path id="XMLID_190_" class="st7" d="M207.2,262.7H85.9c-5.7,0-10.3-4.6-10.3-10.3V10.7c0-5.7,4.6-10.3,10.3-10.3h121.2
	c5.7,0,10.3,4.6,10.3,10.3v241.7C217.4,258.1,212.8,262.7,207.2,262.7z M85.9,3.4c-4,0-7.3,3.3-7.3,7.3v241.7c0,4,3.3,7.3,7.3,7.3
	h121.2c4,0,7.3-3.3,7.3-7.3V10.7c0-4-3.3-7.3-7.3-7.3H85.9z"/>
<g id="XMLID_188_" class="st9">
	
		<rect id="XMLID_2_" x="139.9" y="-35.5" transform="matrix(-1.836970e-16 1 -1 -1.836970e-16 169.4347 -123.6656)" class="st5" width="13.4" height="116.8"/>
</g>
<g id="XMLID_184_" class="st10">
	<path id="XMLID_185_" class="st11" d="M205,239.7H88.1c-0.8,0-1.5-0.7-1.5-1.5v-222c0-0.8,0.7-1.5,1.5-1.5H205
		c0.8,0,1.5,0.7,1.5,1.5v222C206.5,239,205.8,239.7,205,239.7z M89.6,236.7h113.8v-219H89.6V236.7z"/>
</g>
<g id="XMLID_180_" class="st12">
	<path id="XMLID_181_" class="st7" d="M156.4,255.6h-19.7c-3,0-5.5-2.5-5.5-5.5c0-3,2.5-5.5,5.5-5.5h19.7c3,0,5.5,2.5,5.5,5.5
		C161.9,253.1,159.5,255.6,156.4,255.6z M136.7,247.6c-1.4,0-2.5,1.1-2.5,2.5c0,1.4,1.1,2.5,2.5,2.5h19.7c1.4,0,2.5-1.1,2.5-2.5
		c0-1.4-1.1-2.5-2.5-2.5H136.7z"/>
</g>
<g id="XMLID_175_" class="st10">
	<g id="XMLID_178_">
		<path id="XMLID_16_" class="st5" d="M159.2,10.6h-25.2c-0.8,0-1.5-0.7-1.5-1.5c0-0.8,0.7-1.5,1.5-1.5h25.2c0.8,0,1.5,0.7,1.5,1.5
			C160.7,9.9,160,10.6,159.2,10.6z"/>
	</g>
	<g id="XMLID_176_">
		<path id="XMLID_15_" class="st5" d="M169.9,10.6h-1.8c-0.8,0-1.5-0.7-1.5-1.5c0-0.8,0.7-1.5,1.5-1.5h1.8c0.8,0,1.5,0.7,1.5,1.5
			C171.4,9.9,170.8,10.6,169.9,10.6z"/>
	</g>
</g>
<g id="XMLID_1_" class="st12">
	<g id="XMLID_12_">
		<path id="XMLID_13_" class="st7" d="M98.2,23.6c0,1.3-1.1,2.4-2.4,2.4c-1.3,0-2.4-1.1-2.4-2.4c0-1.3,1.1-2.4,2.4-2.4
			C97.1,21.2,98.2,22.3,98.2,23.6z"/>
	</g>
	<g id="XMLID_10_">
		<path id="XMLID_11_" class="st7" d="M106.1,23.6c0,1.3-1.1,2.4-2.4,2.4c-1.3,0-2.4-1.1-2.4-2.4c0-1.3,1.1-2.4,2.4-2.4
			C105.1,21.2,106.1,22.3,106.1,23.6z"/>
	</g>
	<g id="XMLID_8_">
		<path id="XMLID_9_" class="st7" d="M114.1,23.6c0,1.3-1.1,2.4-2.4,2.4c-1.3,0-2.4-1.1-2.4-2.4c0-1.3,1.1-2.4,2.4-2.4
			C113,21.2,114.1,22.3,114.1,23.6z"/>
	</g>
	<g id="XMLID_6_">
		<rect id="XMLID_7_" x="185.1" y="21.9" class="st7" width="13.1" height="3.3"/>
	</g>
	<g id="XMLID_4_">
		<rect id="XMLID_5_" x="175.6" y="21.9" class="st7" width="4.5" height="3.3"/>
	</g>
</g>
<path id="XMLID_3_" class="st13" d="M193.5,227H99.6c-1.1,0-2-0.9-2-2v-16.9c0-1.1,0.9-2,2-2h93.8c1.1,0,2,0.9,2,2V225
	C195.5,226.1,194.6,227,193.5,227z"/>
<path id="XMLID_32_" class="st14" d="M193.5,197H99.6c-1.1,0-2-0.9-2-2v-16.9c0-1.1,0.9-2,2-2h93.8c1.1,0,2,0.9,2,2V195
	C195.5,196.1,194.6,197,193.5,197z"/>
<path id="XMLID_25_" class="st15" d="M193.5,157H99.6c-1.1,0-2-0.9-2-2v-16.9c0-1.1,0.9-2,2-2h93.8c1.1,0,2,0.9,2,2V155
	C195.5,156.1,194.6,157,193.5,157z"/>
<path id="XMLID_14_" class="st15" d="M167,132.1H99.6c-1.1,0-2-0.9-2-2v-7c0-1.1,0.9-2,2-2H167c1.1,0,2,0.9,2,2v7
	C169,131.2,168.1,132.1,167,132.1z"/>
<path id="XMLID_24_" class="st15" d="M193.5,114.6H99.6c-1.1,0-2-0.9-2-2V38.1c0-1.1,0.9-2,2-2h93.8c1.1,0,2,0.9,2,2v74.5
	C195.5,113.7,194.6,114.6,193.5,114.6z"/>
<circle id="XMLID_85_" class="st11" cx="39.7" cy="98.4" r="20.2"/>
<circle id="XMLID_87_" class="st16" cx="21.2" cy="162.5" r="20.2"/>
<circle id="XMLID_88_" class="st7" cx="40" cy="227.6" r="20.2"/>
<g id="XMLID_93_">
	<path id="XMLID_97_" class="st8" d="M40,221.2c-2.3,0-4.2,1.9-4.2,4.2c0,2.3,1.9,4.2,4.2,4.2s4.2-1.9,4.2-4.2
		C44.2,223.1,42.3,221.2,40,221.2z M40,227.8c-1.3,0-2.4-1.1-2.4-2.4c0-1.3,1.1-2.4,2.4-2.4c1.3,0,2.4,1.1,2.4,2.4
		C42.4,226.7,41.3,227.8,40,227.8z"/>
	<path id="XMLID_94_" class="st8" d="M40,216.4c-4.9,0-9,4-9,9v0.2c0,2.5,1.4,5.4,4.3,8.7c2.1,2.4,4.1,4,4.2,4.1l0.6,0.4l0.6-0.4
		c0.1-0.1,2.1-1.7,4.2-4.1c2.8-3.2,4.3-6.2,4.3-8.7v-0.2C49,220.5,44.9,216.4,40,216.4z M47.2,225.7c0,4.2-5.5,9.4-7.2,10.9
		c-1.8-1.6-7.2-6.7-7.2-10.9v-0.2c0-4,3.2-7.2,7.2-7.2s7.2,3.2,7.2,7.2V225.7z"/>
</g>
<g id="XMLID_123_">
	<path id="XMLID_155_" class="st8" d="M30.2,162.7v7.8h-15v-7.8H30.2 M31.5,161.4H13.9v10.4h17.6V161.4z M31.5,161.4"/>
	<path id="XMLID_152_" class="st8" d="M26.7,161.4l1.8,1.8c0,0.1,0,0.1,0,0.2c0,0.6,0.5,1,1,1c0.1,0,0.1,0,0.2,0l1.8,1.8v-4.8H26.7z
		 M26.7,161.4"/>
	<path id="XMLID_149_" class="st8" d="M28.9,166.6c0,0.6-0.5,1-1,1c-0.6,0-1-0.5-1-1c0-0.6,0.5-1,1-1
		C28.5,165.6,28.9,166.1,28.9,166.6L28.9,166.6z M28.9,166.6"/>
	<path id="XMLID_146_" class="st8" d="M25.8,166.6c0,1.5-1.4,2.7-3.1,2.7c-1.7,0-3.1-1.2-3.1-2.7c0-1.5,1.4-2.7,3.1-2.7
		C24.4,163.9,25.8,165.1,25.8,166.6L25.8,166.6z M25.8,166.6"/>
	<path id="XMLID_143_" class="st8" d="M18.5,166.6c0,0.6-0.5,1-1,1c-0.6,0-1-0.5-1-1c0-0.6,0.5-1,1-1
		C18.1,165.6,18.5,166.1,18.5,166.6L18.5,166.6z M18.5,166.6"/>
	<path id="XMLID_140_" class="st8" d="M13.9,166.2l1.8-1.8c0.1,0,0.1,0,0.2,0c0.6,0,1-0.5,1-1c0-0.1,0-0.1,0-0.2l1.8-1.8h-4.8V166.2
		z M13.9,166.2"/>
	<path id="XMLID_137_" class="st8" d="M16.9,169.8c0-0.6-0.5-1-1-1c-0.1,0-0.1,0-0.2,0l-1.8-1.8v4.8h4.8l-1.8-1.8
		C16.9,170,16.9,169.9,16.9,169.8L16.9,169.8z M16.9,169.8"/>
	<path id="XMLID_134_" class="st8" d="M29.5,168.8c-0.6,0-1,0.5-1,1c0,0.1,0,0.1,0,0.2l-1.8,1.8h4.8V167l-1.8,1.8
		C29.6,168.8,29.6,168.8,29.5,168.8L29.5,168.8z M29.5,168.8"/>
	<path id="XMLID_131_" class="st8" d="M26.7,158.5c0,0.6-0.5,1-1,1c-0.6,0-1-0.5-1-1c0-0.6,0.5-1,1-1
		C26.2,157.5,26.7,158,26.7,158.5L26.7,158.5z M26.7,158.5"/>
	<path id="XMLID_128_" class="st8" d="M12.7,161.4c0-0.7,0.5-1.2,1.2-1.2h0.7l0-0.1l9.3-5.1l0.7,0.2c0,0.1,0,0.1,0.1,0.2
		c0.3,0.5,0.9,0.7,1.4,0.4c0.1,0,0.1-0.1,0.2-0.1l0.7,0.2l1.6,2.9l-0.2,0.7c-0.1,0-0.1,0-0.2,0.1c-0.2,0.1-0.4,0.3-0.5,0.6h3.1
		l-2.1-3.8l-2.3-4.2l-4.2,2.3l-7,3.8l-4.2,2.3l1.8,3.3V161.4z M12.7,161.4"/>
	<path id="XMLID_125_" class="st8" d="M19.8,158.6c-0.7,0.4-1.2,1-1.5,1.6h5.8c0-0.2-0.1-0.5-0.2-0.7
		C23.1,158.2,21.3,157.8,19.8,158.6L19.8,158.6z M19.8,158.6"/>
</g>
<path class="st8" d="M42.6,90.9l1.2-1.2l2.1,2.1l3.6-3.6l1.2,1.2L46,94.2L42.6,90.9z M49.4,93.2c0.9,1.6,1.3,3.4,1.3,5.2
	c0,2.9-1.1,5.7-3.2,7.8c-2.1,2.1-4.8,3.2-7.8,3.2c-2.9,0-5.7-1.1-7.8-3.2c-2.1-2.1-3.2-4.8-3.2-7.8c0-2.9,1.1-5.7,3.2-7.8
	c2.1-2.1,4.8-3.2,7.8-3.2c1.2,0,2.3,0.2,3.4,0.5l-1.4,1.4c-0.6-0.1-1.3-0.2-2-0.2c-5.1,0-9.3,4.2-9.3,9.3c0,2.3,0.9,4.5,2.3,6.1
	c0.5-2.2,2-4.1,4.1-5c-0.9-0.8-1.4-1.9-1.4-3.2c0-2.4,1.9-4.3,4.3-4.3c2.4,0,4.3,1.9,4.3,4.3c0,1.2-0.5,2.4-1.4,3.2
	c2.1,0.9,3.6,2.7,4.1,5c1.4-1.6,2.3-3.8,2.3-6.1c0-1.4-0.3-2.7-0.9-3.9L49.4,93.2z M39.7,98.9c1.4,0,2.5-1.1,2.5-2.5
	c0-1.4-1.1-2.5-2.5-2.5c-1.4,0-2.5,1.1-2.5,2.5C37.2,97.8,38.3,98.9,39.7,98.9z M39.7,107.7c2,0,3.9-0.7,5.4-1.8
	c-0.1-2.9-2.5-5.3-5.4-5.3s-5.3,2.4-5.4,5.3C35.8,107,37.7,107.7,39.7,107.7z"/>
<g class="st4">
	<path class="st7" d="M171.2,60.3H144c-1,0-1.8-0.8-1.8-1.8s0.8-1.8,1.8-1.8h27.2c1,0,1.8,0.8,1.8,1.8S172.2,60.3,171.2,60.3z"/>
	<path class="st7" d="M127.6,63.9c-0.5,0-1.1-0.2-1.4-0.7l-4.5-5.4c-0.6-0.8-0.5-1.9,0.2-2.6c0.8-0.6,1.9-0.5,2.6,0.2l3.1,3.7
		l5.9-7.3c0.7-0.8,1.8-0.9,2.6-0.2c0.7,0.6,0.8,1.7,0.3,2.5l-7.3,9.1C128.7,63.7,128.2,63.9,127.6,63.9z"/>
	<g>
		<path class="st11" d="M171.2,78.4H144c-1,0-1.8-0.8-1.8-1.8c0-1,0.8-1.8,1.8-1.8h27.2c1,0,1.8,0.8,1.8,1.8
			C173,77.6,172.2,78.4,171.2,78.4z"/>
		<path class="st11" d="M127.2,82.5c-3.5,0-6.3-2.8-6.3-6.3c0-3.5,2.8-6.3,6.3-6.3c3.5,0,6.3,2.8,6.3,6.3S130.7,82.5,127.2,82.5z
			 M127.2,73.5c-1.5,0-2.7,1.2-2.7,2.7c0,1.5,1.2,2.7,2.7,2.7c1.5,0,2.7-1.2,2.7-2.7S128.7,73.5,127.2,73.5z"/>
		<path class="st11" d="M171.2,96.6H144c-1,0-1.8-0.8-1.8-1.8S143,93,144,93h27.2c1,0,1.8,0.8,1.8,1.8S172.2,96.6,171.2,96.6z"/>
		<path class="st11" d="M127.2,100.7c-3.5,0-6.3-2.8-6.3-6.3s2.8-6.3,6.3-6.3c3.5,0,6.3,2.8,6.3,6.3
			C133.5,97.8,130.7,100.7,127.2,100.7L127.2,100.7z M127.2,91.6c-1.5,0-2.7,1.2-2.7,2.7c0,1.5,1.2,2.7,2.7,2.7
			c1.5,0,2.7-1.2,2.7-2.7C129.9,92.8,128.7,91.6,127.2,91.6z"/>
	</g>
</g>
</svg>
