<svg xmlns="http://www.w3.org/2000/svg" viewBox="0 0 485.47 95.25"><defs><style>.cls-1{fill:#fff;}</style></defs><g id="Layer_2" data-name="Layer 2"><g id="Layer_1-2" data-name="Layer 1"><path class="cls-1" d="M462.49,65.23V56.37a7.06,7.06,0,0,0,7.06-7V36.83a15.93,15.93,0,0,1,15.92-15.91v8.86a7.06,7.06,0,0,0-7.06,7V49.32A15.93,15.93,0,0,1,462.49,65.23Z"/><path class="cls-1" d="M122.06,21a22.07,22.07,0,0,0-7.6,1.37v9.88a13.29,13.29,0,1,1,0,21.77v9.89A22.13,22.13,0,1,0,122.06,21Z"/><rect class="cls-1" x="102.3" y="21.41" width="8.86" height="59.77"/><path class="cls-1" d="M390.52,21a22.07,22.07,0,0,0-7.6,1.37v9.88a13.29,13.29,0,1,1,0,21.77v9.89A22.13,22.13,0,1,0,390.52,21Z"/><rect class="cls-1" x="370.76" y="21.41" width="8.86" height="59.77"/><path class="cls-1" d="M182.71,54a13.29,13.29,0,1,1,0-21.77V22.35a22.14,22.14,0,1,0,0,41.54Z"/><rect class="cls-1" x="186.02" y="21.41" width="8.86" height="43.39"/><path class="cls-1" d="M335,54a13.27,13.27,0,0,1-20.88-10.88A13.27,13.27,0,0,1,335,32.23V22.35a22.14,22.14,0,1,0,0,41.54Z"/><path class="cls-1" d="M237.39,37.31h-8.85a7.06,7.06,0,0,0-7.06-7V21.4A15.93,15.93,0,0,1,237.39,37.31Z"/><rect class="cls-1" x="209.34" y="21.41" width="8.86" height="43.39"/><path class="cls-1" d="M264.8,65.21A15.93,15.93,0,0,1,248.89,49.3V5h8.85V49.3a7.06,7.06,0,0,0,7.06,7.05Z"/><rect class="cls-1" x="261.04" y="21.38" width="11.39" height="8.86"/><path class="cls-1" d="M450.83,54A13.27,13.27,0,0,1,430,43.12a13.27,13.27,0,0,1,20.88-10.89V22.35a22.14,22.14,0,1,0,0,41.54Z"/><rect class="cls-1" x="435.63" y="38.66" width="15.21" height="8.86"/><rect class="cls-1" x="285.17" y="21.39" width="8.86" height="43.41"/><rect class="cls-1" x="348.64" y="21.39" width="8.86" height="43.41"/><path class="cls-1" d="M357.29,13.32a4.54,4.54,0,1,1-4.54-4.54A4.53,4.53,0,0,1,357.29,13.32Z"/><path class="cls-1" d="M34.64,59.86l-.19,0-.51-.12-.53-.12-.52-.14-.5-.15c-.18,0-.34-.11-.51-.17l-.5-.17-.51-.2-.47-.18-.51-.24-.44-.19-.51-.26-.42-.22-.5-.28-.41-.24-.49-.31-.39-.25-.48-.34L25.89,56l-.47-.36-.35-.28L24.62,55c-.11-.09-.23-.19-.33-.29l-.44-.41-.32-.3-.41-.43c-.1-.11-.21-.21-.3-.32l-.4-.45-.28-.33c-.13-.15-.26-.31-.38-.47l-.27-.34-.35-.49-.25-.36c-.12-.16-.22-.33-.33-.5l-.24-.37-.3-.52L19.8,49c-.1-.18-.19-.36-.28-.54s-.14-.26-.2-.39-.17-.36-.25-.55-.13-.27-.19-.41-.15-.36-.22-.55-.12-.28-.17-.42l-.2-.57-.15-.44c-.05-.18-.11-.37-.16-.56l-.13-.46c-.05-.19-.09-.38-.14-.57s-.07-.31-.11-.47-.07-.39-.11-.58-.06-.32-.08-.48-.06-.39-.08-.58,0-.33-.06-.5a5.67,5.67,0,0,1-.05-.58c0-.17,0-.34,0-.52a5.52,5.52,0,0,1,0-.58c0-.17,0-.34,0-.51s0-.09,0-.13,0-.06,0-.09,0-.17,0-.26A21.77,21.77,0,0,1,34.64,17.37V0a38.63,38.63,0,0,0-12.2,3.37h0A38.63,38.63,0,0,0,0,38.15C0,39.09-.39,45.63,3.39,55.5a.08.08,0,0,1,0,0c6.45,16.8,20,30.53,31.24,39.71Z"/><path class="cls-1" d="M77.56,38.14a38,38,0,0,0-3.54-16A38.86,38.86,0,0,0,43,0V17.35l.19,0h.05a21.69,21.69,0,0,1,17.22,20,.28.28,0,0,1,0,.09c0,.37,0,.75,0,1.12s0,.74,0,1.1a2.29,2.29,0,0,1,0,.25q0,.42-.06.84l0,.22c0,.29-.06.58-.11.87,0,0,0,.09,0,.13,0,.32-.11.63-.17.94v0A21.71,21.71,0,0,1,43,59.84V95.25A122.13,122.13,0,0,0,63.81,74l0,0C78.49,54.29,77.68,39.64,77.56,38.14Z"/><path class="cls-1" d="M291.21,9.21h8.32l-6.67,8.63h-6.47Z"/></g></g></svg>